<svg viewBox="0 0 84 12.3228" xmlns="http://www.w3.org/2000/svg" xmlns:xlink="http://www.w3.org/1999/xlink" width="84.000000" height="12.322830" fill="none">
	<defs>
		<linearGradient id="paint_linear_8" x1="58.6860886" x2="50.9165192" y1="9.36317062" y2="-7.97969437" gradientUnits="userSpaceOnUse">
			<stop stop-color="rgb(40,111,254)" offset="0" stop-opacity="1" />
			<stop stop-color="rgb(66,184,255)" offset="1" stop-opacity="1" />
		</linearGradient>
		<linearGradient id="paint_linear_9" x1="9.05990601e-06" x2="13.60709" y1="1.16157818" y2="13.8559895" gradientUnits="userSpaceOnUse">
			<stop stop-color="rgb(67,185,255)" offset="0" stop-opacity="1" />
			<stop stop-color="rgb(53.5,148,254.5)" offset="0.493670881" stop-opacity="1" />
			<stop stop-color="rgb(40,111,254)" offset="1" stop-opacity="1" />
		</linearGradient>
		<g id="pixso_custom_effect_4">
			<effect visibility="visible" effectType="" stdDeviation="7" />
		</g>
		<filter id="filter_4" width="8.029602" height="6.813248" x="2.392273" y="2.733078" filterUnits="userSpaceOnUse" customEffect="url(#pixso_custom_effect_4)" color-interpolation-filters="sRGB">
			<feFlood flood-opacity="0" result="BackgroundImageFix" />
			<feBlend result="shape" in="SourceGraphic" in2="BackgroundImageFix" mode="normal" />
		</filter>
		<linearGradient id="paint_linear_10" x1="10.0919933" x2="3.27144337" y1="8.49592209" y2="2.83122158" gradientUnits="userSpaceOnUse">
			<stop stop-color="rgb(46,129,254)" offset="0" stop-opacity="1" />
			<stop stop-color="rgb(39,121,255)" offset="1" stop-opacity="0" />
		</linearGradient>
	</defs>
	<rect id="组合 91" width="84.000000" height="12.322832" x="0.000000" y="0.000000" />
	<path id="矢量 34" d="M18.6543 9.38311L18.6543 0L20.0219 0L20.0219 8.2406L24.2579 8.2406L24.2579 9.38311L18.6543 9.38311ZM49.1014 9.38311L49.1014 5.60919C49.1014 5.14513 48.9541 4.78033 48.6578 4.51478C48.3621 4.2477 47.9912 4.11365 47.544 4.11365C47.2442 4.11365 46.975 4.17453 46.7371 4.29682C46.5012 4.41859 46.3099 4.58999 46.1636 4.81C46.0188 5.02847 45.9466 5.29044 45.9466 5.5964L45.9466 9.38311L44.7156 9.38311L44.7156 3.13845L45.9466 3.13845L45.9466 3.8655C46.1359 3.63679 46.3682 3.45004 46.6435 3.30524C47.017 3.10621 47.436 3.00644 47.9011 3.00644C48.357 3.00644 48.7683 3.10417 49.1352 3.29859C49.5041 3.49097 49.7952 3.76266 50.0091 4.11365C50.0137 4.12183 50.0188 4.12951 50.0234 4.1377C50.0275 4.13207 50.0316 4.12593 50.0357 4.1203C50.2777 3.7734 50.5903 3.50172 50.9725 3.30524C51.3552 3.10621 51.7748 3.00644 52.2302 3.00644C52.7034 3.00644 53.1276 3.10417 53.5011 3.29859C53.8746 3.49097 54.1724 3.76266 54.395 4.11365C54.6196 4.46259 54.7316 4.88265 54.7316 5.37486L54.7316 9.38311L53.4878 9.38311L53.4878 5.60919C53.4878 5.14513 53.3399 4.78033 53.0442 4.51478C52.748 4.2477 52.3816 4.11365 51.9436 4.11365C51.6433 4.11365 51.3721 4.17453 51.1296 4.29682C50.8891 4.41859 50.6957 4.58999 50.5494 4.81C50.4046 5.02847 50.3325 5.29044 50.3325 5.5964L50.3325 9.38311L49.1014 9.38311ZM59.361 9.5146C58.7235 9.5146 58.1494 9.37032 57.6403 9.08124C57.1312 8.79267 56.7255 8.40126 56.4231 7.907C56.1228 7.41071 55.9729 6.85557 55.9729 6.24159C55.9729 5.6358 56.1228 5.09038 56.4231 4.60483C56.7255 4.11928 57.1312 3.73196 57.6403 3.44288C58.1494 3.15226 58.7235 3.00644 59.361 3.00644C59.9908 3.00644 60.5618 3.15022 61.075 3.43674C61.5918 3.72121 61.9996 4.10853 62.2999 4.59818C62.5997 5.08834 62.7502 5.6358 62.7502 6.24159C62.7502 6.85557 62.5997 7.41071 62.2999 7.907C61.9996 8.40126 61.5918 8.79267 61.075 9.08124C60.5618 9.37032 59.9908 9.5146 59.361 9.5146ZM28.7783 3.38557C29.0699 3.31497 29.4567 3.24027 29.9392 3.16096C30.4217 3.08165 30.9773 3.04226 31.6067 3.04226C32.1715 3.04226 32.6397 3.11952 33.0111 3.27352C33.3846 3.42548 33.6824 3.63935 33.905 3.91513C34.1296 4.19091 34.2872 4.52297 34.3783 4.90977C34.4693 5.29504 34.5154 5.71971 34.5154 6.18377L34.5154 9.38311L33.2444 9.38311C33.2444 9.38311 33.2455 9.17947 33.2455 8.86123C33.2455 7.83282 33.2357 5.60612 33.1544 5.18657C33.048 4.63655 32.7988 4.37868 32.3138 4.24565C32.0871 4.16225 31.8057 4.1203 31.4701 4.1203C31.3324 4.1203 31.1897 4.1249 31.0433 4.1336C30.8985 4.14179 30.7599 4.15253 30.6263 4.16532C30.4949 4.17812 30.3772 4.19449 30.2728 4.21342C30.1684 4.23082 30.0937 4.24361 30.0492 4.2523L30.0492 9.38311L28.7783 9.38311L28.7783 3.38557ZM25.5385 9.38311L25.5385 3.13845L26.769 3.13845L26.769 9.38311L25.5385 9.38311ZM42.7514 6.29787C42.7514 8.01036 41.3055 9.40153 39.5254 9.40153C37.7459 9.40153 36.3 8.01036 36.3 6.29787C36.3 4.58539 37.7459 3.19473 39.5254 3.19473C40.277 3.19473 40.9693 3.44237 41.5178 3.85834L41.5178 3.19473L42.7514 3.19473L42.7514 6.29787ZM59.361 8.37209C59.7698 8.37209 60.1341 8.28 60.4518 8.09631C60.7721 7.91212 61.0233 7.6609 61.206 7.34215C61.3882 7.02134 61.4792 6.65449 61.4792 6.24159C61.4792 5.83892 61.3861 5.48077 61.1988 5.16611C61.0121 4.84991 60.7609 4.60176 60.4452 4.42166C60.1321 4.24207 59.7698 4.15202 59.361 4.15202C58.9517 4.15202 58.5869 4.24207 58.2671 4.42166C57.9494 4.60176 57.6992 4.84991 57.517 5.16611C57.3349 5.48077 57.2433 5.83892 57.2433 6.24159C57.2433 6.65449 57.3349 7.02134 57.517 7.34215C57.6992 7.6609 57.9473 7.91212 58.2671 8.09631C58.5869 8.28 58.9517 8.37209 59.361 8.37209ZM39.5254 8.21502C40.625 8.21502 41.5178 7.35596 41.5178 6.29787C41.5178 5.2403 40.625 4.38124 39.5254 4.38124C38.4264 4.38124 37.5331 5.2403 37.5331 6.29787C37.5331 7.35596 38.4264 8.21502 39.5254 8.21502ZM39.5254 12.3225C38.253 12.3225 37.1509 11.6113 36.6264 10.5799L38.1174 10.5742C38.4781 10.9211 38.9759 11.136 39.5254 11.136C40.0755 11.136 40.5733 10.9211 40.934 10.5742C41.2164 10.302 41.4144 9.9495 41.4871 9.55502L42.7324 9.55502C42.6915 9.9188 42.5851 10.2642 42.4249 10.5799C41.9 11.6113 40.7984 12.3225 39.5254 12.3225Z" fill="url(#paint_linear_8)" fill-rule="evenodd" />
	<path id="矢量 34" d="M67.8032 2.32135C67.442 3.0484 67.2614 3.86601 67.2614 4.7747C67.2614 5.68083 67.442 6.49793 67.8032 7.22447C68.1649 7.95152 68.6781 8.52047 69.3433 8.93184C70.0099 9.34167 70.7794 9.54632 71.6508 9.54632C72.5334 9.54632 73.307 9.34167 73.9716 8.93184C74.6368 8.52047 75.152 7.95152 75.5178 7.22447C75.8836 6.49793 76.0668 5.68083 76.0668 4.7747C76.0668 3.86601 75.8836 3.0484 75.5178 2.32135C75.152 1.59429 74.6368 1.02637 73.9716 0.617047C73.307 0.205682 72.5334 0 71.6508 0C70.7794 0 70.0099 0.205682 69.3433 0.617047C68.6781 1.02637 68.1649 1.59429 67.8032 2.32135ZM77.7348 6.39099L76.8471 6.39099C76.9008 7.33089 77.2538 8.09017 77.9062 8.66885C78.558 9.24548 79.479 9.53353 80.6691 9.53353C81.3209 9.53353 81.8996 9.42302 82.4056 9.20147C82.9132 8.97788 83.3061 8.66578 83.5834 8.26465C83.8613 7.86147 83.9999 7.39075 83.9999 6.85148C83.9999 6.24364 83.8572 5.76269 83.5706 5.40761C83.2846 5.05252 82.9081 4.78698 82.4409 4.61148C81.9743 4.43599 81.3746 4.28045 80.643 4.14486C80.0254 4.03383 79.5358 3.91513 79.1746 3.78773C78.8128 3.65828 78.5396 3.48483 78.3544 3.26738C78.1697 3.0484 78.0771 2.7629 78.0771 2.41242C78.0771 1.89821 78.2838 1.48992 78.6967 1.18702C79.1121 0.882081 79.677 0.72961 80.3913 0.72961C81.0779 0.72961 81.6397 0.898965 82.0761 1.23716C82.5131 1.57588 82.7714 2.06143 82.8508 2.69434L83.7093 2.69434C83.6213 1.87314 83.2974 1.22181 82.7382 0.739331C82.1784 0.254801 81.392 0.0122795 80.3785 0.0122795C79.7522 0.0122795 79.2012 0.113586 78.7258 0.316198C78.25 0.516764 77.8801 0.800729 77.6156 1.1686C77.3505 1.53597 77.2185 1.9591 77.2185 2.43698C77.2185 2.95118 77.3388 3.36869 77.5798 3.69052C77.8233 4.00978 78.1579 4.25947 78.5836 4.43906C79.0119 4.61916 79.5476 4.76805 80.1912 4.88726C80.9423 5.03359 81.5159 5.17788 81.9119 5.3196C82.3074 5.45979 82.6046 5.65166 82.8027 5.89623C83.0027 6.1408 83.1025 6.47132 83.1025 6.88934C83.1025 7.49717 82.8779 7.97045 82.4281 8.30865C81.9784 8.64685 81.3961 8.8162 80.6819 8.8162C79.7911 8.8162 79.0871 8.60438 78.5708 8.18023C78.0566 7.75607 77.7778 7.16 77.7348 6.39099ZM74.7401 2.73476C75.0087 3.34055 75.1433 4.02053 75.1433 4.7747C75.1433 5.52631 75.0087 6.20629 74.7401 6.81413C74.471 7.42196 74.0719 7.90138 73.5423 8.25237C73.0133 8.60285 72.3824 8.77834 71.6508 8.77834C70.9191 8.77834 70.2929 8.60285 69.7725 8.25237C69.2537 7.90138 68.8597 7.42196 68.5911 6.81413C68.322 6.20629 68.1874 5.52631 68.1874 4.7747C68.1874 4.02053 68.322 3.34055 68.5911 2.73476C68.8597 2.12692 69.2537 1.64751 69.7725 1.29703C70.2929 0.946037 70.9191 0.770542 71.6508 0.770542C72.3824 0.770542 73.0133 0.946037 73.5423 1.29703C74.0719 1.64751 74.471 2.12692 74.7401 2.73476Z" fill="rgb(40,111,254)" fill-rule="evenodd" />
	<path id="矢量 34" d="M26.1555 1.89002C25.9263 1.89002 25.7385 1.81839 25.5917 1.67513C25.4469 1.52931 25.3748 1.34768 25.3748 1.1292C25.3748 0.917382 25.4469 0.73984 25.5917 0.596578C25.7385 0.45127 25.9263 0.378616 26.1555 0.378616C26.3822 0.378616 26.5679 0.45127 26.7122 0.596578C26.859 0.73984 26.9322 0.917382 26.9322 1.1292C26.9322 1.34768 26.859 1.52931 26.7122 1.67513C26.5679 1.81839 26.3822 1.89002 26.1555 1.89002Z" fill="rgb(66,182,255)" fill-rule="evenodd" />
	<path id="矩形 36" d="M4.0933 0L8.18649 0C9.6191 0 10.3354 0 10.8824 0.278336C11.3638 0.523927 11.7552 0.915338 12.0008 1.3968C12.2797 1.94375 12.2797 2.66006 12.2797 4.09318L12.2797 8.18637C12.2797 9.61898 12.2797 10.3353 12.0008 10.8822C11.7552 11.3637 11.3638 11.7551 10.8824 12.0007C10.3354 12.2795 9.6191 12.2795 8.18649 12.2795L4.0933 12.2795C2.66018 12.2795 1.94387 12.2795 1.39692 12.0007C0.91546 11.7551 0.524049 11.3637 0.278458 10.8822C0.00012207 10.3353 0.00012207 9.61898 0.00012207 8.18637L0.00012207 4.09318C0.00012207 2.66006 0.00012207 1.94375 0.278458 1.3968C0.524049 0.915338 0.91546 0.523927 1.39692 0.278336C1.94387 0 2.66018 0 4.0933 0Z" fill="url(#paint_linear_9)" fill-rule="evenodd" />
	<g id="g">
		<path id="矢量 30" d="M6.30157 3.02333C4.96003 2.33772 3.33504 2.90821 2.67297 4.29784C2.01038 5.68696 2.56092 7.36926 3.90246 8.05436C4.57323 8.39716 5.31512 8.42582 5.97156 8.19506C6.26474 8.09478 6.74313 7.81747 7.27882 7.48745C7.50446 8.53224 8.253 9.2685 8.79637 9.54632L9.12792 8.851C8.824 8.69597 8.1215 8.01343 8.05346 7.38564C8.04066 7.26693 8.02839 7.14721 8.01559 7.02748C8.11485 6.96506 8.21463 6.90264 8.31337 6.84073C8.83628 6.5143 9.78692 6.67649 10.0908 6.83203L10.4219 6.1367C9.8785 5.85888 8.85879 5.69208 7.92043 6.14233C7.84777 5.50124 7.76898 4.93945 7.66818 4.63758C7.44562 3.9576 6.97234 3.36562 6.30157 3.02333ZM7.19338 6.60742C7.4272 6.45853 7.67279 6.30043 7.92043 6.14233C7.95266 6.42681 7.98387 6.72714 8.01559 7.02748C7.76591 7.18405 7.51674 7.34112 7.27882 7.48745C7.24966 7.18763 7.22152 6.88985 7.19338 6.60742ZM7.19338 6.60742C6.53437 7.02544 5.96951 7.36619 5.71983 7.42606C5.25321 7.59029 4.72621 7.56983 4.24987 7.32628C3.29667 6.8392 2.90526 5.64399 3.37597 4.65702C3.84669 3.66954 5.00096 3.26431 5.95468 3.7514C6.43102 3.99495 6.76717 4.41552 6.92527 4.89852C7.03118 5.14001 7.11305 5.81181 7.19338 6.60742Z" opacity="0" fill="rgb(255,255,255)" fill-rule="evenodd" />
		<path id="矢量 30" d="M6.30157 3.02333C4.96003 2.33772 3.33504 2.90821 2.67297 4.29784C2.01038 5.68697 2.56092 7.36926 3.90246 8.05436C4.57323 8.39716 5.31512 8.42582 5.97156 8.19506C6.26474 8.09478 6.74313 7.81747 7.27882 7.48745C7.50446 8.53224 8.253 9.2685 8.79637 9.54633L9.12792 8.851C8.824 8.69597 8.1215 8.01343 8.05346 7.38564C8.04066 7.26693 8.02839 7.14721 8.01559 7.02748C8.11485 6.96506 8.21463 6.90264 8.31337 6.84073C8.83628 6.5143 9.78692 6.67649 10.0908 6.83203L10.4219 6.1367C9.8785 5.85888 8.85879 5.69208 7.92043 6.14233C7.84777 5.50124 7.76898 4.93945 7.66818 4.63758C7.44562 3.9576 6.97234 3.36562 6.30157 3.02333ZM7.19338 6.60742C7.4272 6.45853 7.67279 6.30043 7.92043 6.14233C7.95266 6.42681 7.98387 6.72715 8.01559 7.02748C7.76591 7.18405 7.51674 7.34112 7.27882 7.48745C7.24966 7.18763 7.22152 6.88985 7.19338 6.60742ZM7.19338 6.60742C6.53437 7.02544 5.96951 7.36619 5.71983 7.42606C5.25321 7.5903 4.72621 7.56983 4.24987 7.32628C3.29667 6.8392 2.90526 5.64399 3.37597 4.65702C3.84669 3.66954 5.00096 3.26431 5.95468 3.7514C6.43102 3.99495 6.76717 4.41552 6.92527 4.89852C7.03118 5.14001 7.11305 5.81181 7.19338 6.60742Z" fill="rgb(255,255,255)" fill-rule="evenodd" />
		<g opacity="0" filter="url(#filter_4)">
			<path id="矢量 31" d="M6.30157 3.02333C4.96003 2.33772 3.33504 2.90821 2.67297 4.29784C2.01038 5.68696 2.56092 7.36926 3.90246 8.05436C4.57323 8.39716 5.31512 8.42582 5.97156 8.19506C6.26474 8.09478 6.74313 7.81747 7.27882 7.48745C7.50446 8.53224 8.253 9.2685 8.79637 9.54632L9.12792 8.851C8.824 8.69597 8.1215 8.01343 8.05346 7.38564C8.04066 7.26693 8.02839 7.14721 8.01559 7.02748C8.11485 6.96506 8.21463 6.90264 8.31337 6.84073C8.83628 6.5143 9.78692 6.67649 10.0908 6.83203L10.4219 6.1367C9.8785 5.85888 8.85879 5.69208 7.92043 6.14233C7.84777 5.50124 7.76898 4.93945 7.66818 4.63758C7.44562 3.9576 6.97234 3.36562 6.30157 3.02333ZM7.19338 6.60742C7.4272 6.45853 7.67279 6.30043 7.92043 6.14233C7.95266 6.42681 7.98387 6.72714 8.01559 7.02748C7.76591 7.18405 7.51674 7.34112 7.27882 7.48745C7.24966 7.18763 7.22152 6.88985 7.19338 6.60742ZM7.19338 6.60742C6.53437 7.02544 5.96951 7.36619 5.71983 7.42606C5.25321 7.59029 4.72621 7.56983 4.24987 7.32628C3.29667 6.8392 2.90526 5.64399 3.37597 4.65702C3.84669 3.66954 5.00096 3.26431 5.95468 3.7514C6.43102 3.99495 6.76717 4.41552 6.92527 4.89852C7.03118 5.14001 7.11305 5.81181 7.19338 6.60742Z" fill="url(#paint_linear_10)" fill-rule="evenodd" />
		</g>
	</g>
</svg>
