<svg viewBox="0 0 1277.16 240.84" xmlns="http://www.w3.org/2000/svg" xmlns:xlink="http://www.w3.org/1999/xlink" width="1277.158691" height="240.839722" fill="none" customFrame="#000000">
	<defs>
		<linearGradient id="paint_linear_35" x1="782.408142" x2="630.554443" y1="183.000092" y2="-155.96051" gradientUnits="userSpaceOnUse">
			<stop stop-color="rgb(40,111,254)" offset="0" stop-opacity="1" />
			<stop stop-color="rgb(66,184,255)" offset="1" stop-opacity="1" />
		</linearGradient>
	</defs>
	<g id="组合 93">
		<path id="矢量 34" d="M0 183.39L0 0L26.73 0L26.73 161.06L109.52 161.06L109.52 183.39L0 183.39ZM595.079 183.39L595.079 109.63C595.079 100.56 592.199 93.4299 586.409 88.2399C580.629 83.0199 573.379 80.3999 564.639 80.3999C558.779 80.3999 553.519 81.5899 548.869 83.9799C544.259 86.3599 540.519 89.7099 537.659 94.0099C534.829 98.2799 533.419 103.4 533.419 109.38L533.419 183.39L509.359 183.39L509.359 61.3399L533.419 61.3399L533.419 75.5499C537.119 71.0799 541.659 67.4299 547.039 64.5999C554.339 60.7099 562.529 58.7599 571.619 58.7599C580.529 58.7599 588.569 60.6699 595.739 64.4699C602.949 68.2299 608.639 73.5399 612.819 80.3999C612.909 80.5599 613.009 80.7099 613.099 80.8699C613.179 80.7599 613.259 80.6399 613.339 80.5299C618.069 73.7499 624.179 68.4399 631.649 64.5999C639.129 60.7099 647.329 58.7599 656.229 58.7599C665.479 58.7599 673.769 60.6699 681.069 64.4699C688.369 68.2299 694.189 73.5399 698.539 80.3999C702.929 87.2199 705.119 95.4299 705.119 105.05L705.119 183.39L680.809 183.39L680.809 109.63C680.809 100.56 677.919 93.4299 672.139 88.2399C666.349 83.0199 659.189 80.3999 650.629 80.3999C644.759 80.3999 639.459 81.5899 634.719 83.9799C630.019 86.3599 626.239 89.7099 623.379 94.0099C620.549 98.2799 619.139 103.4 619.139 109.38L619.139 183.39L595.079 183.39ZM795.599 185.96C783.139 185.96 771.919 183.14 761.969 177.49C752.019 171.85 744.089 164.2 738.179 154.54C732.309 144.84 729.379 133.99 729.379 121.99C729.379 110.15 732.309 99.4899 738.179 89.9999C744.089 80.5099 752.019 72.9399 761.969 67.2899C771.919 61.6099 783.139 58.7599 795.599 58.7599C807.909 58.7599 819.069 61.5699 829.099 67.1699C839.199 72.7299 847.169 80.2999 853.039 89.8699C858.899 99.4499 861.839 110.15 861.839 121.99C861.839 133.99 858.899 144.84 853.039 154.54C847.169 164.2 839.199 171.85 829.099 177.49C819.069 183.14 807.909 185.96 795.599 185.96ZM197.87 66.1699C203.57 64.7899 211.13 63.3299 220.56 61.7799C229.99 60.2299 240.85 59.4599 253.15 59.4599C264.19 59.4599 273.34 60.9699 280.6 63.9799C287.9 66.9499 293.72 71.1299 298.07 76.5199C302.46 81.9099 305.54 88.3999 307.32 95.9599C309.1 103.49 310 111.79 310 120.86L310 183.39L285.16 183.39C285.16 183.39 285.18 179.41 285.18 173.19C285.18 153.09 284.99 109.57 283.4 101.37C281.32 90.6199 276.45 85.5799 266.97 82.9799C262.54 81.3499 257.04 80.5299 250.48 80.5299C247.79 80.5299 245 80.6199 242.14 80.7899C239.31 80.9499 236.6 81.1599 233.99 81.4099C231.42 81.6599 229.12 81.9799 227.08 82.3499C225.04 82.6899 223.58 82.9399 222.71 83.1099L222.71 183.39L197.87 183.39L197.87 66.1699ZM134.55 183.39L134.55 61.3399L158.6 61.3399L158.6 183.39L134.55 183.39ZM470.969 123.09C470.969 156.56 442.709 183.75 407.92 183.75C373.14 183.75 344.88 156.56 344.88 123.09C344.88 89.6199 373.14 62.4399 407.92 62.4399C422.61 62.4399 436.139 67.2799 446.859 75.4099L446.859 62.4399L470.969 62.4399L470.969 123.09ZM795.599 163.63C803.589 163.63 810.709 161.83 816.919 158.24C823.179 154.64 828.089 149.73 831.659 143.5C835.219 137.23 836.999 130.06 836.999 121.99C836.999 114.12 835.179 107.12 831.519 100.97C827.869 94.7899 822.959 89.9399 816.789 86.4199C810.669 82.9099 803.589 81.1499 795.599 81.1499C787.599 81.1499 780.469 82.9099 774.219 86.4199C768.009 89.9399 763.119 94.7899 759.559 100.97C755.999 107.12 754.209 114.12 754.209 121.99C754.209 130.06 755.999 137.23 759.559 143.5C763.119 149.73 767.969 154.64 774.219 158.24C780.469 161.83 787.599 163.63 795.599 163.63ZM407.92 160.56C429.409 160.56 446.859 143.77 446.859 123.09C446.859 102.42 429.409 85.6299 407.92 85.6299C386.44 85.6299 368.98 102.42 368.98 123.09C368.98 143.77 386.44 160.56 407.92 160.56ZM407.92 240.84C383.05 240.84 361.51 226.94 351.26 206.78L380.4 206.67C387.449 213.45 397.18 217.65 407.92 217.65C418.67 217.65 428.399 213.45 435.449 206.67C440.969 201.35 444.839 194.46 446.259 186.75L470.599 186.75C469.799 193.86 467.719 200.61 464.589 206.78C454.329 226.94 432.799 240.84 407.92 240.84Z" fill="url(#paint_linear_35)" fill-opacity="0.400000006" fill-rule="evenodd" />
		<path id="矢量 34" d="M960.599 45.3699C953.539 59.5799 950.009 75.5599 950.009 93.3199C950.009 111.03 953.539 127 960.599 141.2C967.669 155.41 977.699 166.53 990.699 174.57C1003.73 182.58 1018.77 186.58 1035.8 186.58C1053.05 186.58 1068.17 182.58 1081.16 174.57C1094.16 166.53 1104.23 155.41 1111.38 141.2C1118.53 127 1122.11 111.03 1122.11 93.3199C1122.11 75.5599 1118.53 59.5799 1111.38 45.3699C1104.23 31.16 1094.16 20.06 1081.16 12.06C1068.17 4.01999 1053.05 0 1035.8 0C1018.77 0 1003.73 4.01999 990.699 12.06C977.699 20.06 967.669 31.16 960.599 45.3699ZM1154.71 124.91L1137.36 124.91C1138.41 143.28 1145.31 158.12 1158.06 169.43C1170.8 180.7 1188.8 186.33 1212.06 186.33C1224.8 186.33 1236.11 184.17 1246 179.84C1255.92 175.47 1263.6 169.37 1269.02 161.53C1274.45 153.65 1277.16 144.45 1277.16 133.91C1277.16 122.03 1274.37 112.63 1268.77 105.69C1263.18 98.7499 1255.82 93.5599 1246.69 90.1299C1237.57 86.6999 1225.85 83.6599 1211.55 81.0099C1199.48 78.8399 1189.91 76.5199 1182.85 74.0299C1175.78 71.4999 1170.44 68.1099 1166.82 63.8599C1163.21 59.5799 1161.4 53.9999 1161.4 47.1499C1161.4 37.1 1165.44 29.12 1173.51 23.2C1181.63 17.24 1192.67 14.26 1206.63 14.26C1220.05 14.26 1231.03 17.57 1239.56 24.18C1248.1 30.8 1253.15 40.29 1254.7 52.6599L1271.48 52.6599C1269.76 36.61 1263.43 23.88 1252.5 14.45C1241.56 4.97999 1226.19 0.24 1206.38 0.24C1194.14 0.24 1183.37 2.22 1174.08 6.17999C1164.78 10.1 1157.55 15.65 1152.38 22.84C1147.2 30.02 1144.62 38.29 1144.62 47.6299C1144.62 57.6799 1146.97 65.8399 1151.68 72.1299C1156.44 78.3699 1162.98 83.2499 1171.3 86.7599C1179.67 90.2799 1190.14 93.1899 1202.72 95.5199C1217.4 98.3799 1228.61 101.2 1236.35 103.97C1244.08 106.71 1249.89 110.46 1253.76 115.24C1257.67 120.02 1259.62 126.48 1259.62 134.65C1259.62 146.53 1255.23 155.78 1246.44 162.39C1237.65 169 1226.27 172.31 1212.31 172.31C1194.9 172.31 1181.14 168.17 1171.05 159.88C1161 151.59 1155.55 139.94 1154.71 124.91ZM1096.18 53.4499C1101.43 65.2899 1104.06 78.5799 1104.06 93.3199C1104.06 108.01 1101.43 121.3 1096.18 133.18C1090.92 145.06 1083.12 154.43 1072.77 161.29C1062.43 168.14 1050.1 171.57 1035.8 171.57C1021.5 171.57 1009.26 168.14 999.089 161.29C988.949 154.43 981.249 145.06 975.999 133.18C970.739 121.3 968.109 108.01 968.109 93.3199C968.109 78.5799 970.739 65.2899 975.999 53.4499C981.249 41.57 988.949 32.2 999.089 25.35C1009.26 18.49 1021.5 15.06 1035.8 15.06C1050.1 15.06 1062.43 18.49 1072.77 25.35C1083.12 32.2 1090.92 41.57 1096.18 53.4499Z" fill="rgb(40,111,254)" fill-opacity="0.400000006" fill-rule="evenodd" />
		<path id="矢量 34" d="M146.61 36.94C142.13 36.94 138.46 35.54 135.59 32.74C132.76 29.89 131.35 26.34 131.35 22.07C131.35 17.93 132.76 14.46 135.59 11.66C138.46 8.82002 142.13 7.40002 146.61 7.40002C151.04 7.40002 154.67 8.82002 157.49 11.66C160.36 14.46 161.79 17.93 161.79 22.07C161.79 26.34 160.36 29.89 157.49 32.74C154.67 35.54 151.04 36.94 146.61 36.94Z" fill="rgb(66,182,255)" fill-opacity="0.400000006" fill-rule="evenodd" />
	</g>
</svg>
